M48
; DRILL file {KiCad (6.0.8)} date Mon Dec 12 15:57:31 2022
; FORMAT={-:-/ absolute / metric / decimal}
; #@! TF.CreationDate,2022-12-12T15:57:31+01:00
; #@! TF.GenerationSoftware,Kicad,Pcbnew,(6.0.8)
; #@! TF.FileFunction,Plated,1,4,PTH
FMAT,2
METRIC
; #@! TA.AperFunction,Plated,PTH,ViaDrill
T1C0.300
; #@! TA.AperFunction,Plated,PTH,ComponentDrill
T2C0.750
; #@! TA.AperFunction,Plated,PTH,ComponentDrill
T3C1.000
; #@! TA.AperFunction,Plated,PTH,ComponentDrill
T4C1.600
; #@! TA.AperFunction,Plated,PTH,ComponentDrill
T5C3.200
%
G90
G05
T1
X7.0Y13.6
X7.1Y7.4
X7.55Y19.8
X7.9Y41.6
X10.875Y23.55
X10.9Y21.9
X11.25Y19.8
X11.3Y49.7
X16.6Y19.8
X17.9Y13.5
X18.8Y38.0
X20.4Y38.0
X20.7Y24.2
X21.6Y13.5
X22.3Y20.8
X23.6Y30.9
X26.3Y2.0
X26.9Y35.4
X26.9Y30.9
X29.7Y36.5
X29.787Y44.712
X30.0Y16.2
X31.2Y35.9
X31.387Y48.712
X32.4Y16.2
X32.7Y20.4
X32.756Y34.856
X33.1Y28.3
X33.1Y26.6
X34.2Y39.5
X34.6Y27.4
X34.8Y25.5
X35.4Y14.8
X35.7Y34.1
X36.3Y48.7
X36.487Y46.112
X37.8Y7.889
X38.7Y16.4
X38.7Y14.6
X39.0Y36.4
X39.0Y7.9
X39.4Y52.9
X40.0Y36.4
X40.2Y16.4
X40.3Y46.3
X40.8Y15.1
X41.1Y52.9
X41.4Y44.9
X42.1Y49.4
X42.3Y47.3
X42.5Y51.7
X42.7Y15.6
X42.7Y14.7
X43.3Y7.8
X43.6Y49.4
X43.6Y39.4
X43.7Y16.5
X44.1Y51.9
X44.3Y47.1
X44.8Y32.4
X44.8Y27.9
X44.8Y23.4
X44.8Y11.9
X44.9Y7.8
X45.1Y49.4
X45.2Y45.0
X46.2Y51.8
X46.2Y47.1
X46.3Y9.7
X47.0Y27.9
X47.0Y23.4
X47.1Y51.8
X47.1Y47.1
X47.1Y32.4
X47.6Y7.1
X47.8Y12.2
X48.5Y51.4
X49.0Y44.0
X49.1Y6.2
X49.1Y2.1
X49.5Y50.4
X49.7Y45.8
X50.8Y50.4
X50.8Y34.6
X50.8Y32.4
X50.8Y30.1
X50.8Y27.9
X50.8Y25.6
X50.8Y23.4
X50.8Y21.1
X51.1Y45.8
X51.1Y14.3
X52.3Y32.4
X52.3Y27.9
X52.3Y23.4
X52.475Y39.975
X52.5Y35.2
X52.5Y30.6
X52.5Y25.1
X52.5Y20.5
X53.0Y45.0
X53.7Y12.3
X53.8Y27.9
X53.8Y8.7
X53.8Y7.0
X53.9Y10.8
X54.0Y32.4
X54.0Y23.4
X54.1Y37.3
X54.2Y34.5
X54.2Y29.6
X54.2Y26.0
X54.2Y21.3
X54.2Y18.9
X55.1Y40.5
X55.2Y15.6
X55.7Y43.4
X56.9Y41.9
X56.9Y17.4
X56.9Y14.6
X57.9Y10.8
X57.9Y8.7
X58.0Y32.4
X58.0Y30.0
X58.0Y26.0
X58.0Y23.5
X58.9Y15.7
X59.0Y38.5
X59.0Y36.9
X59.0Y34.6
X59.0Y21.1
X59.2Y18.6
X59.7Y15.1
X60.0Y52.5
X60.0Y41.0
X60.0Y29.0
X60.0Y27.0
X60.2Y44.2
X61.0Y18.4
X61.0Y12.3
X62.2Y46.9
X62.3Y6.2
X62.3Y2.1
X62.9Y37.9
X62.9Y36.8
X62.9Y32.65
X62.9Y31.85
X62.9Y24.1
X62.9Y23.2
X62.9Y19.0
X62.9Y17.8
X63.0Y41.0
X63.0Y34.6
X63.0Y29.4
X63.0Y26.0
X63.0Y21.1
X65.6Y10.825
X65.6Y8.6
X66.0Y40.0
X66.0Y34.6
X66.0Y29.0
X66.0Y27.0
X66.0Y21.1
X66.1Y14.5
X66.4Y37.9
X66.4Y36.8
X66.4Y32.6
X66.4Y31.8
X66.4Y24.1
X66.4Y23.2
X66.4Y19.0
X66.4Y17.8
X66.5Y45.3
X66.5Y44.1
X66.9Y12.5
X67.5Y52.5
X67.9Y46.9
X69.0Y34.6
X69.0Y30.0
X69.0Y26.0
X69.0Y21.1
X69.1Y14.9
X69.5Y31.6
X69.5Y24.4
X69.6Y46.9
X69.6Y10.825
X69.6Y8.6
X69.7Y15.5
X70.0Y41.1
X70.0Y40.0
X70.0Y38.9
X72.0Y42.0
X72.5Y52.5
X72.5Y17.5
X73.2Y46.9
X73.5Y10.825
X73.5Y8.6
X73.9Y35.0
X73.9Y29.0
X73.9Y27.0
X73.9Y21.1
X74.5Y46.9
X74.5Y14.2
X74.5Y12.6
X75.0Y50.0
X75.0Y42.0
X75.0Y38.0
X76.1Y45.3
X76.1Y44.1
X77.5Y42.0
X77.5Y38.0
X79.0Y34.0
X79.0Y29.5
X79.0Y26.0
X79.0Y22.0
X80.0Y40.0
X80.0Y15.0
X81.0Y35.0
X81.0Y33.0
X81.0Y30.5
X81.0Y28.5
X81.0Y25.2
X81.0Y23.0
X81.0Y21.0
X82.5Y42.5
X82.5Y37.5
X82.5Y17.5
X82.5Y12.5
X83.0Y34.0
X83.0Y29.5
X83.0Y26.0
X83.0Y22.0
T2
X4.22Y42.6
X4.22Y40.6
X4.25Y34.05
X4.25Y32.05
T3
X2.71Y26.18
X2.71Y23.64
X2.71Y21.1
X9.4Y9.65
X12.94Y52.1
X13.0Y9.65
X15.48Y52.1
X16.6Y9.65
X20.2Y9.65
X20.265Y52.1
X22.805Y52.1
X23.8Y9.65
X28.05Y6.14
X28.05Y3.6
X30.4Y52.1
X30.59Y6.14
X30.59Y3.6
X32.94Y52.1
X33.13Y6.14
X33.13Y3.6
X35.48Y52.1
X35.67Y6.14
X35.67Y3.6
X38.21Y6.14
X38.21Y3.6
X40.75Y6.14
X40.75Y3.6
X43.29Y6.14
X43.29Y3.6
X51.94Y4.3
X54.48Y4.3
X57.02Y4.3
X59.56Y4.3
X64.6Y37.2
X64.6Y32.2
X64.6Y23.632
X64.6Y18.632
X65.08Y4.31
X67.62Y4.31
X70.16Y4.31
X72.7Y4.31
X75.24Y4.31
T4
X56.65Y46.0
X60.15Y46.0
X68.8Y44.9
X73.8Y44.9
X76.0Y33.15
X76.0Y29.65
X76.0Y26.15
X76.0Y22.65
T5
X4.0Y51.0
X4.0Y4.0
X81.0Y51.0
X81.0Y4.0
T0
M30
