G04 #@! TF.GenerationSoftware,KiCad,Pcbnew,(6.0.8)*
G04 #@! TF.CreationDate,2022-12-12T15:57:36+01:00*
G04 #@! TF.ProjectId,TMCM-1290-EVAL_v1.0,544d434d-2d31-4323-9930-2d4556414c5f,rev?*
G04 #@! TF.SameCoordinates,PX3c8eee0PY8eeaea0*
G04 #@! TF.FileFunction,Paste,Top*
G04 #@! TF.FilePolarity,Positive*
%FSLAX46Y46*%
G04 Gerber Fmt 4.6, Leading zero omitted, Abs format (unit mm)*
G04 Created by KiCad (PCBNEW (6.0.8)) date 2022-12-12 15:57:36*
%MOMM*%
%LPD*%
G01*
G04 APERTURE LIST*
G04 Aperture macros list*
%AMRoundRect*
0 Rectangle with rounded corners*
0 $1 Rounding radius*
0 $2 $3 $4 $5 $6 $7 $8 $9 X,Y pos of 4 corners*
0 Add a 4 corners polygon primitive as box body*
4,1,4,$2,$3,$4,$5,$6,$7,$8,$9,$2,$3,0*
0 Add four circle primitives for the rounded corners*
1,1,$1+$1,$2,$3*
1,1,$1+$1,$4,$5*
1,1,$1+$1,$6,$7*
1,1,$1+$1,$8,$9*
0 Add four rect primitives between the rounded corners*
20,1,$1+$1,$2,$3,$4,$5,0*
20,1,$1+$1,$4,$5,$6,$7,0*
20,1,$1+$1,$6,$7,$8,$9,0*
20,1,$1+$1,$8,$9,$2,$3,0*%
G04 Aperture macros list end*
%ADD10RoundRect,0.225000X0.225000X0.250000X-0.225000X0.250000X-0.225000X-0.250000X0.225000X-0.250000X0*%
%ADD11RoundRect,0.225000X0.250000X-0.225000X0.250000X0.225000X-0.250000X0.225000X-0.250000X-0.225000X0*%
%ADD12R,0.787400X0.355600*%
%ADD13RoundRect,0.200000X0.275000X-0.200000X0.275000X0.200000X-0.275000X0.200000X-0.275000X-0.200000X0*%
%ADD14RoundRect,0.250000X0.475000X-0.250000X0.475000X0.250000X-0.475000X0.250000X-0.475000X-0.250000X0*%
%ADD15RoundRect,0.200000X0.200000X0.275000X-0.200000X0.275000X-0.200000X-0.275000X0.200000X-0.275000X0*%
%ADD16R,0.863600X0.990600*%
%ADD17RoundRect,0.200000X-0.275000X0.200000X-0.275000X-0.200000X0.275000X-0.200000X0.275000X0.200000X0*%
%ADD18RoundRect,0.200000X-0.200000X-0.275000X0.200000X-0.275000X0.200000X0.275000X-0.200000X0.275000X0*%
%ADD19RoundRect,0.225000X-0.250000X0.225000X-0.250000X-0.225000X0.250000X-0.225000X0.250000X0.225000X0*%
%ADD20RoundRect,0.218750X0.256250X-0.218750X0.256250X0.218750X-0.256250X0.218750X-0.256250X-0.218750X0*%
%ADD21RoundRect,0.150000X0.587500X0.150000X-0.587500X0.150000X-0.587500X-0.150000X0.587500X-0.150000X0*%
%ADD22R,2.500000X2.300000*%
%ADD23R,0.750000X0.250000*%
%ADD24RoundRect,0.250000X-0.650000X0.325000X-0.650000X-0.325000X0.650000X-0.325000X0.650000X0.325000X0*%
%ADD25R,2.000000X1.100000*%
%ADD26R,0.800000X1.100000*%
%ADD27RoundRect,0.225000X-0.225000X-0.250000X0.225000X-0.250000X0.225000X0.250000X-0.225000X0.250000X0*%
%ADD28RoundRect,0.250000X-0.250000X-0.400000X0.250000X-0.400000X0.250000X0.400000X-0.250000X0.400000X0*%
%ADD29RoundRect,0.250000X0.400000X-0.250000X0.400000X0.250000X-0.400000X0.250000X-0.400000X-0.250000X0*%
%ADD30RoundRect,0.250000X0.250000X0.400000X-0.250000X0.400000X-0.250000X-0.400000X0.250000X-0.400000X0*%
%ADD31RoundRect,0.250000X-0.400000X0.250000X-0.400000X-0.250000X0.400000X-0.250000X0.400000X0.250000X0*%
%ADD32R,0.254000X0.762000*%
%ADD33RoundRect,0.250000X-1.100000X0.325000X-1.100000X-0.325000X1.100000X-0.325000X1.100000X0.325000X0*%
%ADD34RoundRect,0.150000X-0.587500X-0.150000X0.587500X-0.150000X0.587500X0.150000X-0.587500X0.150000X0*%
%ADD35R,1.000000X0.900000*%
%ADD36R,1.000000X1.700000*%
%ADD37RoundRect,0.250000X1.100000X-0.325000X1.100000X0.325000X-1.100000X0.325000X-1.100000X-0.325000X0*%
G04 APERTURE END LIST*
D10*
G04 #@! TO.C,C12*
X56760000Y10800000D03*
X55210000Y10800000D03*
G04 #@! TD*
D11*
G04 #@! TO.C,C24*
X46600000Y5525000D03*
X46600000Y7075000D03*
G04 #@! TD*
D12*
G04 #@! TO.C,U6*
X46733200Y11949999D03*
X46733200Y11300000D03*
X46733200Y10650001D03*
X48866800Y10650001D03*
X48866800Y11300000D03*
X48866800Y11949999D03*
G04 #@! TD*
D13*
G04 #@! TO.C,R8*
X20300000Y16875000D03*
X20300000Y18525000D03*
G04 #@! TD*
D14*
G04 #@! TO.C,C5*
X46644300Y48450000D03*
X46644300Y50350000D03*
G04 #@! TD*
D15*
G04 #@! TO.C,R20*
X52625000Y8700000D03*
X50975000Y8700000D03*
G04 #@! TD*
D16*
G04 #@! TO.C,L2*
X52625500Y7065350D03*
X50974500Y7065350D03*
G04 #@! TD*
D13*
G04 #@! TO.C,R14*
X7600000Y16825000D03*
X7600000Y18475000D03*
G04 #@! TD*
D17*
G04 #@! TO.C,R28*
X72415000Y8625000D03*
X72415000Y6975000D03*
G04 #@! TD*
D18*
G04 #@! TO.C,R4*
X11275000Y48700000D03*
X12925000Y48700000D03*
G04 #@! TD*
D17*
G04 #@! TO.C,R27*
X70715000Y8625000D03*
X70715000Y6975000D03*
G04 #@! TD*
D19*
G04 #@! TO.C,C25*
X49100000Y4975000D03*
X49100000Y3425000D03*
G04 #@! TD*
D20*
G04 #@! TO.C,D4*
X20300000Y13462500D03*
X20300000Y15037500D03*
G04 #@! TD*
D13*
G04 #@! TO.C,R11*
X9400000Y16825000D03*
X9400000Y18475000D03*
G04 #@! TD*
D21*
G04 #@! TO.C,D1*
X11237500Y40650000D03*
X11237500Y42550000D03*
X9362500Y41600000D03*
G04 #@! TD*
D20*
G04 #@! TO.C,D5*
X9400000Y13462500D03*
X9400000Y15037500D03*
G04 #@! TD*
D18*
G04 #@! TO.C,R5*
X11275000Y47000000D03*
X12925000Y47000000D03*
G04 #@! TD*
D19*
G04 #@! TO.C,C27*
X62300000Y4975000D03*
X62300000Y3425000D03*
G04 #@! TD*
D22*
G04 #@! TO.C,D2*
X71950000Y40000000D03*
X76250000Y40000000D03*
G04 #@! TD*
D13*
G04 #@! TO.C,R15*
X11200000Y16825000D03*
X11200000Y18475000D03*
G04 #@! TD*
D10*
G04 #@! TO.C,C18*
X76275000Y10800000D03*
X74725000Y10800000D03*
G04 #@! TD*
D17*
G04 #@! TO.C,R25*
X68500000Y8625000D03*
X68500000Y6975000D03*
G04 #@! TD*
D20*
G04 #@! TO.C,D6*
X5800000Y13462500D03*
X5800000Y15037500D03*
G04 #@! TD*
D10*
G04 #@! TO.C,C4*
X43019300Y46300000D03*
X41469300Y46300000D03*
G04 #@! TD*
D17*
G04 #@! TO.C,R6*
X29587500Y47937500D03*
X29587500Y46287500D03*
G04 #@! TD*
G04 #@! TO.C,R22*
X60810000Y8675000D03*
X60810000Y7025000D03*
G04 #@! TD*
G04 #@! TO.C,R3*
X17900000Y48625000D03*
X17900000Y46975000D03*
G04 #@! TD*
D23*
G04 #@! TO.C,U7*
X67810000Y13950000D03*
X67810000Y13450000D03*
X67810000Y12950000D03*
X67810000Y12450000D03*
X70910000Y12450000D03*
X70910000Y12950000D03*
X70910000Y13450000D03*
X70910000Y13950000D03*
G04 #@! TD*
D20*
G04 #@! TO.C,D7*
X16600000Y13462500D03*
X16600000Y15037500D03*
G04 #@! TD*
D11*
G04 #@! TO.C,C14*
X54100000Y16175000D03*
X54100000Y17725000D03*
G04 #@! TD*
D20*
G04 #@! TO.C,D8*
X13000000Y13462500D03*
X13000000Y15037500D03*
G04 #@! TD*
D15*
G04 #@! TO.C,R7*
X36350000Y47612500D03*
X34700000Y47612500D03*
G04 #@! TD*
D17*
G04 #@! TO.C,R29*
X55085000Y8725000D03*
X55085000Y7075000D03*
G04 #@! TD*
D19*
G04 #@! TO.C,C22*
X73200000Y14175000D03*
X73200000Y12625000D03*
G04 #@! TD*
D16*
G04 #@! TO.C,L1*
X36450500Y44725000D03*
X34799500Y44725000D03*
G04 #@! TD*
D24*
G04 #@! TO.C,C3*
X40244300Y51475000D03*
X40244300Y48525000D03*
G04 #@! TD*
D11*
G04 #@! TO.C,C16*
X72300000Y22825000D03*
X72300000Y24375000D03*
G04 #@! TD*
D19*
G04 #@! TO.C,C9*
X59700000Y14075000D03*
X59700000Y12525000D03*
G04 #@! TD*
D17*
G04 #@! TO.C,R24*
X66800000Y8625000D03*
X66800000Y6975000D03*
G04 #@! TD*
D15*
G04 #@! TO.C,R9*
X14000000Y23500000D03*
X12350000Y23500000D03*
G04 #@! TD*
D18*
G04 #@! TO.C,R17*
X50975000Y11900000D03*
X52625000Y11900000D03*
G04 #@! TD*
D10*
G04 #@! TO.C,C26*
X48675000Y8834650D03*
X47125000Y8834650D03*
G04 #@! TD*
G04 #@! TO.C,C15*
X68475000Y10800000D03*
X66925000Y10800000D03*
G04 #@! TD*
D19*
G04 #@! TO.C,C17*
X72300000Y33175000D03*
X72300000Y31625000D03*
G04 #@! TD*
D25*
G04 #@! TO.C,D3*
X50550000Y47300000D03*
D26*
X52450000Y47300000D03*
G04 #@! TD*
D17*
G04 #@! TO.C,R21*
X59068332Y8675000D03*
X59068332Y7025000D03*
G04 #@! TD*
D23*
G04 #@! TO.C,U8*
X54590000Y13950000D03*
X54590000Y13450000D03*
X54590000Y12950000D03*
X54590000Y12450000D03*
X57690000Y12450000D03*
X57690000Y12950000D03*
X57690000Y13450000D03*
X57690000Y13950000D03*
G04 #@! TD*
D19*
G04 #@! TO.C,C21*
X70700000Y25975000D03*
X70700000Y24425000D03*
G04 #@! TD*
D17*
G04 #@! TO.C,R30*
X76315000Y8625000D03*
X76315000Y6975000D03*
G04 #@! TD*
D19*
G04 #@! TO.C,C23*
X25100000Y3575000D03*
X25100000Y2025000D03*
G04 #@! TD*
D27*
G04 #@! TO.C,C1*
X18783000Y36576000D03*
X20333000Y36576000D03*
G04 #@! TD*
D11*
G04 #@! TO.C,C13*
X70700000Y30025000D03*
X70700000Y31575000D03*
G04 #@! TD*
D17*
G04 #@! TO.C,R23*
X74615000Y8625000D03*
X74615000Y6975000D03*
G04 #@! TD*
D27*
G04 #@! TO.C,C2*
X31450000Y44725000D03*
X33000000Y44725000D03*
G04 #@! TD*
D28*
G04 #@! TO.C,U5*
X29700000Y17650000D03*
X31200000Y17650000D03*
X32700000Y17650000D03*
X34200000Y17650000D03*
X35700000Y17650000D03*
X37200000Y17650000D03*
X38700000Y17650000D03*
X40200000Y17650000D03*
X41700000Y17650000D03*
X43200000Y17650000D03*
X44700000Y17650000D03*
D29*
X49200000Y20400000D03*
X49200000Y21900000D03*
X49200000Y23400000D03*
X49200000Y24900000D03*
X49200000Y26400000D03*
X49200000Y27900000D03*
X49200000Y29400000D03*
X49200000Y30900000D03*
X49200000Y32400000D03*
X49200000Y33900000D03*
X49200000Y35400000D03*
D30*
X44700000Y38150000D03*
X43200000Y38150000D03*
X41700000Y38150000D03*
X40200000Y38150000D03*
X38700000Y38150000D03*
X37200000Y38150000D03*
X35700000Y38150000D03*
X34200000Y38150000D03*
X32700000Y38150000D03*
X31200000Y38150000D03*
X29700000Y38150000D03*
D31*
X25200000Y35400000D03*
X25200000Y33900000D03*
X25200000Y32400000D03*
X25200000Y30900000D03*
X25200000Y29400000D03*
X25200000Y27900000D03*
X25200000Y26400000D03*
X25200000Y24900000D03*
X25200000Y23400000D03*
X25200000Y21900000D03*
X25200000Y20400000D03*
G04 #@! TD*
D19*
G04 #@! TO.C,C6*
X54100000Y39975000D03*
X54100000Y38425000D03*
G04 #@! TD*
D13*
G04 #@! TO.C,R19*
X46600000Y2375000D03*
X46600000Y4025000D03*
G04 #@! TD*
D32*
G04 #@! TO.C,U1*
X44544301Y50744600D03*
X44044299Y50744600D03*
X43544300Y50744600D03*
X43044301Y50744600D03*
X42544299Y50744600D03*
X42544299Y48255400D03*
X43044301Y48255400D03*
X43544300Y48255400D03*
X44044299Y48255400D03*
X44544301Y48255400D03*
G04 #@! TD*
D10*
G04 #@! TO.C,C20*
X60675000Y10800000D03*
X59125000Y10800000D03*
G04 #@! TD*
G04 #@! TO.C,C28*
X13975000Y21900000D03*
X12425000Y21900000D03*
G04 #@! TD*
D18*
G04 #@! TO.C,R1*
X14475000Y47000000D03*
X16125000Y47000000D03*
G04 #@! TD*
D33*
G04 #@! TO.C,C8*
X56900000Y40675000D03*
X56900000Y37725000D03*
G04 #@! TD*
D15*
G04 #@! TO.C,R16*
X43825000Y11900000D03*
X42175000Y11900000D03*
G04 #@! TD*
D34*
G04 #@! TO.C,Q1*
X50212500Y51450000D03*
X50212500Y49550000D03*
X52087500Y50500000D03*
G04 #@! TD*
D18*
G04 #@! TO.C,R2*
X14475000Y48700000D03*
X16125000Y48700000D03*
G04 #@! TD*
D17*
G04 #@! TO.C,R26*
X56826666Y8725000D03*
X56826666Y7075000D03*
G04 #@! TD*
D10*
G04 #@! TO.C,C10*
X72275000Y10800000D03*
X70725000Y10800000D03*
G04 #@! TD*
D35*
G04 #@! TO.C,Y1*
X33000000Y47625000D03*
X31375000Y47625000D03*
X31375000Y46400000D03*
X33000000Y46400000D03*
G04 #@! TD*
D36*
G04 #@! TO.C,U4*
X10200000Y32050000D03*
X10200000Y25750000D03*
X14000000Y32050000D03*
X14000000Y25750000D03*
G04 #@! TD*
D13*
G04 #@! TO.C,R10*
X16600000Y16825000D03*
X16600000Y18475000D03*
G04 #@! TD*
D37*
G04 #@! TO.C,C11*
X56900000Y15625000D03*
X56900000Y18575000D03*
G04 #@! TD*
D13*
G04 #@! TO.C,R12*
X5800000Y16825000D03*
X5800000Y18475000D03*
G04 #@! TD*
G04 #@! TO.C,R13*
X13000000Y16825000D03*
X13000000Y18475000D03*
G04 #@! TD*
D15*
G04 #@! TO.C,R18*
X52625000Y10315350D03*
X50975000Y10315350D03*
G04 #@! TD*
M02*
